<svg xmlns="http://www.w3.org/2000/svg" width="28" height="25.455" viewBox="0 0 7.408 6.735"><path d="m 67.496094,192.50391 c -1.107999,0 -2,0.892 -2,2 v 15 c 0,1.10799 0.892001,2 2,2 h 1 v 6 A 0.45377042,0.45377042 0 0 0 69.25,217.8457 l 7.246094,-6.34179 h 15 c 1.107998,0 2,-0.89201 2,-2 v -15 c 0,-1.108 -0.892002,-2 -2,-2 z m 7.001953,3.5 c 1.374788,0 2.501953,1.12716 2.501953,2.50195 0,1.37479 -1.127165,2.49609 -2.501953,2.49609 2.761349,0 4.998047,2.24256 4.998047,5.00391 v 1.5 a 0.50004934,0.50004934 0 0 1 -0.501953,0.50195 h -9 A 0.50004934,0.50004934 0 0 1 69.5,207.50586 v -1.5 c 0,-2.76135 2.236694,-5.00391 4.998047,-5.00391 -1.374792,0 -2.501953,-1.1213 -2.501953,-2.49609 0,-1.37479 1.127161,-2.50195 2.501953,-2.50195 z m 0,0.99609 C 73.663693,197 73,197.67151 73,198.50586 c 0,0.83435 0.663693,1.5 1.498047,1.5 0.834349,0 1.498047,-0.66565 1.498047,-1.5 0,-0.83435 -0.663698,-1.50586 -1.498047,-1.50586 z M 80.5,199.50391 h 7.994141 a 0.49999937,0.49999937 0 0 1 0.501953,0.50195 0.49999937,0.49999937 0 0 1 -0.501953,0.50195 H 80.5 A 0.49999937,0.49999937 0 0 1 79.998047,200.00586 0.49999937,0.49999937 0 0 1 80.5,199.50391 Z m 0,2 h 7.994141 a 0.49999937,0.49999937 0 0 1 0.501953,0.50195 A 0.49999937,0.49999937 0 0 1 88.494141,202.5 H 80.5 A 0.49999937,0.49999937 0 0 1 79.998047,202.00586 0.49999937,0.49999937 0 0 1 80.5,201.50391 Z m -6.001953,0.50195 c -2.224649,0 -4.001953,1.77535 -4.001953,4 v 0.99805 h 8.001953 v -0.99805 c 0,-2.22465 -1.775355,-4 -4,-4 z M 80.5,203.50391 h 7.994141 a 0.49999937,0.49999937 0 0 1 0.501953,0.50195 A 0.49999937,0.49999937 0 0 1 88.494141,204.5 H 80.5 A 0.49999937,0.49999937 0 0 1 79.998047,204.00586 0.49999937,0.49999937 0 0 1 80.5,203.50391 Z" color="#000" font-family="sans-serif" font-weight="400" overflow="visible" transform="translate(-17.33 -50.933) scale(.26458)" style="line-height:normal;font-variant-ligatures:normal;font-variant-position:normal;font-variant-caps:normal;font-variant-numeric:normal;font-variant-alternates:normal;font-variant-east-asian:normal;font-feature-settings:normal;font-variation-settings:normal;text-indent:0;text-align:start;text-decoration-line:none;text-decoration-style:solid;text-decoration-color:#000;text-transform:none;text-orientation:mixed;shape-padding:0;shape-margin:0;inline-size:0;isolation:auto;mix-blend-mode:normal"/></svg>