<?xml version="1.0" encoding="utf-8"?>
<!-- Svg Vector Icons : http://www.onlinewebfonts.com/icon -->
<!DOCTYPE svg PUBLIC "-//W3C//DTD SVG 1.1//EN" "http://www.w3.org/Graphics/SVG/1.1/DTD/svg11.dtd">
<svg version="1.1" xmlns="http://www.w3.org/2000/svg" xmlns:xlink="http://www.w3.org/1999/xlink" x="0px" y="0px" viewBox="0 0 1000 1000" enable-background="new 0 0 1000 1000" xml:space="preserve">
<metadata> Svg Vector Icons : http://www.onlinewebfonts.com/icon </metadata>
<g><path d="M982.2,177.3c-0.9-1.6-1.8-3.2-2.8-4.7c-0.1-0.2-0.2-0.4-0.4-0.6c-0.2-0.2-0.3-0.4-0.5-0.6c-0.9-1.3-1.8-2.6-2.8-3.8c-0.2-0.2-0.3-0.4-0.5-0.7c-1.1-1.4-2.3-2.7-3.6-4c-0.1-0.1-0.3-0.3-0.4-0.5c-0.2-0.2-0.5-0.4-0.7-0.6c-1-1-2.1-2-3.2-2.9c-0.3-0.3-0.6-0.6-1-0.9c-1.4-1.1-2.8-2.2-4.2-3.2c-0.1-0.1-0.3-0.2-0.4-0.3c-0.3-0.2-0.6-0.3-0.9-0.5c-1.2-0.8-2.4-1.5-3.6-2.2c-0.5-0.3-0.9-0.5-1.4-0.8c-1.6-0.8-3.1-1.6-4.8-2.3c-0.1-0.1-0.2-0.1-0.4-0.2c-0.3-0.1-0.6-0.2-0.9-0.3c-1.3-0.5-2.7-1-4-1.5c-0.5-0.2-1.1-0.4-1.6-0.5c-1.7-0.5-3.5-1-5.2-1.4c-0.1,0-0.2,0-0.2-0.1c-0.3-0.1-0.6-0.1-0.9-0.1c-1.5-0.3-3-0.5-4.6-0.7c-0.6-0.1-1.2-0.1-1.8-0.2c-1.7-0.1-3.5-0.3-5.3-0.3c-0.2,0-0.3,0-0.5,0l0,0h-2.9l0,0L881.5,174l-3.1,2.3L503.3,450.8L121.6,171.3l-37.8-27.7l0,0h-9.6c-27.5,0-50.9,17.4-60.1,41.8c-2.7,7-4.2,14.7-4.2,22.6v584c0,0.1,0,0.2,0,0.2c0,1.9,0.1,3.7,0.3,5.6c0.1,0.6,0.1,1.2,0.2,1.7c0.2,1.4,0.4,2.8,0.6,4.3c0.1,0.5,0.2,1.1,0.3,1.6c0.3,1.6,0.7,3.2,1.2,4.7c0,0.1,0,0.1,0.1,0.2c0.3,1,0.7,2,1,3c0.3,0.8,0.6,1.7,0.9,2.5c0.4,0.9,0.8,1.8,1.2,2.7c0.4,0.9,0.8,1.7,1.2,2.6c0.4,0.8,0.8,1.6,1.3,2.4c0.5,0.9,1.1,1.9,1.7,2.8c0.4,0.7,0.8,1.4,1.3,2c1,1.5,2.1,3,3.3,4.4c0.3,0.4,0.7,0.8,1.1,1.2c0.9,1,1.8,2.1,2.7,3c0.5,0.5,1,1,1.6,1.5c0.9,0.8,1.7,1.6,2.6,2.4c0.6,0.5,1.1,1,1.7,1.4c0.9,0.8,1.9,1.5,2.9,2.2c0.6,0.4,1.1,0.8,1.7,1.2c1.2,0.8,2.4,1.5,3.7,2.3c0.4,0.2,0.8,0.5,1.2,0.7c1.7,0.9,3.4,1.7,5.1,2.5c0.6,0.2,1.1,0.4,1.7,0.7c1.2,0.5,2.5,1,3.7,1.4c0.7,0.2,1.5,0.4,2.2,0.7c1.1,0.3,2.3,0.6,3.5,0.9c0.8,0.2,1.6,0.3,2.4,0.5c1.2,0.2,2.4,0.4,3.7,0.6c0.7,0.1,1.5,0.2,2.3,0.3c1.7,0.2,3.4,0.2,5.1,0.3c0.3,0,0.6,0,0.9,0h47.4V324.6l277,202.8l91.1,66.7l0,0l0,0l0,0l0.9,0.7l15.9,11.6l0,0l0,0l64.5-47.2l40.2-29.4l205-150.1l62.2-45.5v522.2h47.4c0.3,0,0.6,0,0.9,0c1.7,0,3.4-0.1,5.1-0.3c0.5,0,1-0.1,1.4-0.2c0.2,0,0.4,0,0.6-0.1c0.1,0,0.2,0,0.3,0c1.2-0.2,2.5-0.3,3.7-0.6c0,0,0.1,0,0.1,0c0.4-0.1,0.7-0.1,1.1-0.2c0.4-0.1,0.8-0.2,1.2-0.2c1.2-0.3,2.3-0.6,3.5-0.9c0.7-0.2,1.5-0.4,2.2-0.7c1.3-0.4,2.5-0.9,3.7-1.4c0.1,0,0.2-0.1,0.2-0.1c0.5-0.2,0.9-0.3,1.4-0.5c0,0,0,0,0.1,0c1.7-0.7,3.4-1.6,5.1-2.5c0.4-0.2,0.8-0.5,1.2-0.7c1.2-0.7,2.5-1.5,3.7-2.2c0.6-0.4,1.2-0.8,1.7-1.2c1-0.7,1.9-1.4,2.9-2.2c0,0,0,0,0,0c0.6-0.5,1.1-0.9,1.7-1.4c0,0,0,0,0,0c0.9-0.8,1.8-1.6,2.6-2.4c0.3-0.2,0.5-0.5,0.8-0.7c0.3-0.3,0.6-0.5,0.8-0.8c0,0,0,0,0,0c0.9-1,1.8-1.9,2.7-3c0.1-0.1,0.1-0.2,0.2-0.2c0.3-0.3,0.6-0.7,0.9-1c0,0,0,0,0,0c1.1-1.4,2.2-2.9,3.2-4.3c0,0,0,0,0,0c0.4-0.6,0.8-1.3,1.2-2c0,0,0-0.1,0-0.1c0.6-0.9,1.1-1.8,1.6-2.7c0,0,0,0,0,0c0.1-0.1,0.1-0.3,0.2-0.4c0.4-0.7,0.7-1.4,1.1-2.1c0.4-0.8,0.8-1.7,1.2-2.5c0.4-0.9,0.8-1.8,1.2-2.8c0.3-0.8,0.6-1.6,0.9-2.4c0.1-0.3,0.2-0.6,0.3-0.9c0.2-0.7,0.5-1.4,0.7-2.1c0,0,0,0,0-0.1c0-0.1,0-0.1,0.1-0.2c0.5-1.5,0.9-3.1,1.2-4.7c0,0,0,0,0-0.1c0.1-0.5,0.2-1,0.3-1.5c0-0.1,0-0.1,0-0.2c0.3-1.4,0.5-2.8,0.6-4.2c0.1-0.6,0.1-1.2,0.2-1.8c0.2-1.8,0.3-3.6,0.3-5.5c0-0.1,0-0.2,0-0.3V252.5v-24.6V208C990,196.9,987.2,186.5,982.2,177.3z"/></g>
</svg>